<?xml version="1.0" encoding="UTF-8"?>
<svg width="32px" height="56px" viewBox="0 0 32 56" version="1.1" xmlns="http://www.w3.org/2000/svg" xmlns:xlink="http://www.w3.org/1999/xlink">
    <!-- Generator: Sketch 40 (33762) - http://www.bohemiancoding.com/sketch -->
    <title>mixing-machine</title>
    <desc>Created with Sketch.</desc>
    <defs></defs>
    <g id="Page-1" stroke="none" stroke-width="1" fill="none" fill-rule="evenodd">
        <g id="mixing-machine" fill="#007850">
            <g id="Group">
                <path d="M19.0848294,42.6336378 C20.5910971,42.6336378 21.8122205,43.8546142 21.8122205,45.3608819 C21.8122205,46.8653858 20.5910971,48.0863622 19.0848294,48.0863622 C17.5787087,48.0863622 16.3593491,46.8653858 16.3593491,45.3608819 C16.3593491,43.8546142 17.5787087,42.6336378 19.0848294,42.6336378 L19.0848294,42.6336378 Z" id="Shape"></path>
                <path d="M29.5089134,1.21935958 L24.327664,1.21935958 C23.9365459,0.529427822 21.7044829,0 18.9978163,0 C16.2943832,0 14.0615853,0.529427822 13.6697323,1.21935958 L7.55426772,1.21935958 C5.47330184,1.21935958 5.61690289,3.48552231 5.61690289,3.48552231 L6.92489239,3.48552231 C6.9479685,3.9560105 6.99500262,4.89434121 7.05644094,6.14192126 L3.51638845,6.14192126 C1.69587402,6.14192126 1.04004199,8.44997375 0.67288189,10.4625932 C0.316892388,12.416273 0.112,15.0709081 0.112,17.7459738 C0.112,20.3459318 0.300724409,22.7454068 0.645690289,24.5052178 C0.858225722,25.5939108 1.42351706,28.4851864 3.51888714,28.4851864 L8.2280315,28.4851864 C8.58064042,31.3063517 9.82645669,34.1958635 12.9824462,35.7021312 L12.832231,35.7021312 C12.832231,35.7021312 7.33585302,41.1137008 7.33585302,45.296063 L7.33585302,55.9573753 L18.775874,55.9573753 L18.8152651,55.9573753 L30.2570499,55.9573753 L30.2570499,45.296063 C30.2570499,41.111937 24.7615538,35.7021312 24.7615538,35.7021312 L24.5701837,35.7021312 C28.0967139,34.0181627 29.2408189,30.6128924 29.4167559,27.5023202 C29.6457533,23.4891339 30.4995696,6.1239895 30.6293543,3.48566929 L31.4439265,3.48566929 C31.4453963,3.48552231 31.5888504,1.21935958 29.5089134,1.21935958 L29.5089134,1.21935958 Z M3.79124409,25.8618583 C3.31399475,25.1044619 2.69828871,22.0947192 2.7367979,17.328399 C2.77354331,12.6329239 3.3960105,9.60260367 3.86649869,8.76495538 L7.18372703,8.76495538 C7.44755906,14.1178793 7.83779528,21.9239265 8.04606824,25.8618583 L3.79124409,25.8618583 L3.79124409,25.8618583 Z M11.744126,30.4710551 C11.5536378,30.0664147 11.4222362,29.5796115 11.3471286,29.2261207 C11.2565879,28.7343202 11.2336588,28.3893543 11.1695748,27.9444409 C11.0568399,27.0965039 10.9851129,26.1956535 10.8844304,25.2692283 C10.7794856,24.3419213 10.7059948,23.3803675 10.6360315,22.4027927 C10.567685,21.4250709 10.4695013,20.4338268 10.4311391,19.4406719 C10.3209029,17.4537743 10.2287454,15.4582047 10.2211024,13.5977113 C10.2108136,11.7372178 10.2305092,9.99695538 10.2893018,8.50185827 C10.3892493,5.51504462 10.6411759,3.51433071 10.6411759,3.51433071 C10.6411759,3.51433071 11.1151916,5.47477165 11.5454068,8.4343937 C11.7708766,9.91332283 11.9826772,11.639769 12.176399,13.4927664 C12.359979,15.3498793 12.5487034,17.3138478 12.6784882,19.2888399 C12.7656483,20.2724409 12.791958,21.2629501 12.848399,22.2346457 C12.8988136,23.2088399 12.9474646,24.1652493 12.960252,25.0943202 C12.9773018,26.0223622 13.0174278,26.919832 13.0106667,27.7729134 C13.0124304,28.1828451 13.0124304,28.5823412 13.0140472,28.9700787 C13.0355066,29.4107297 13.0891549,29.6838215 13.1386877,29.9810184 C13.4145722,31.248147 14.1854908,32.2063202 14.7628346,32.815853 C15.3553176,33.4272966 15.7789186,33.7244934 15.7789186,33.7244934 C15.7789186,33.7244934 15.2666877,33.656147 14.4519685,33.2429816 C13.655916,32.8362835 12.4768294,32.0405249 11.744126,30.4710551 L11.744126,30.4710551 Z M19.0848294,49.7257953 C16.6769764,49.7257953 14.7190341,47.7687349 14.7190341,45.3608819 C14.7190341,42.9528819 16.6769764,40.9924409 19.0848294,40.9924409 C21.4928294,40.9924409 23.4532703,42.9528819 23.4532703,45.3608819 C23.4531234,47.7687349 21.4928294,49.7257953 19.0848294,49.7257953 L19.0848294,49.7257953 Z" id="Shape"></path>
            </g>
        </g>
    </g>
</svg>