<?xml version="1.0" encoding="UTF-8"?>
<svg width="40px" height="60px" viewBox="0 0 40 60" version="1.1" xmlns="http://www.w3.org/2000/svg" xmlns:xlink="http://www.w3.org/1999/xlink">
    <!-- Generator: Sketch 40 (33762) - http://www.bohemiancoding.com/sketch -->
    <title>chef</title>
    <desc>Created with Sketch.</desc>
    <defs></defs>
    <g id="Page-1" stroke="none" stroke-width="1" fill="none" fill-rule="evenodd">
        <g id="chef" fill="#007850">
            <g id="Capa_1">
                <g id="Group">
                    <path d="M29.0949606,39.4648819 C26.7144882,41.9385827 23.5617323,43.4628346 20.0927559,43.4628346 C16.5330709,43.4628346 13.3007874,41.8598425 10.9011024,39.2708661 C1.7223622,42.2275591 0.094015748,49.4770079 0.094015748,52.2125984 L0.094015748,59.9559055 L39.0741732,59.9559055 L39.0741732,54.1977953 C39.0743307,51.3267717 38.0570079,42.8954331 29.0949606,39.4648819 L29.0949606,39.4648819 Z" id="Shape"></path>
                    <path d="M9.84645669,17.6251969 L9.84645669,26.8488189 C9.84645669,27.4461417 10.2398425,27.9411024 10.7777953,28.1222047 C10.7777953,28.1543307 10.7722835,28.1807874 10.7722835,28.2108661 C10.7722835,33.0258268 13.3127559,37.1170079 16.8688189,38.6941732 C16.896378,38.7089764 16.9264567,38.7198425 16.9548031,38.7344882 C17.235748,38.8516535 17.5222047,38.959685 17.8166929,39.0472441 C17.8771654,39.0656693 17.9348031,39.0856693 17.9951181,39.1023622 C18.2650394,39.1755906 18.5385827,39.232126 18.8138583,39.2798425 C18.8907087,39.2925984 18.9677165,39.3108661 19.043622,39.3201575 C19.3883465,39.3658268 19.7370079,39.3951181 20.0929134,39.3951181 C20.4450394,39.3951181 20.7900787,39.3677165 21.132126,39.3220472 C21.2053543,39.3127559 21.2748031,39.2944882 21.3426772,39.283622 C21.6225197,39.2377953 21.9007874,39.1811024 22.1714961,39.1061417 C22.2228346,39.0913386 22.2722835,39.0732283 22.3215748,39.060315 C22.6215748,38.9724409 22.9144882,38.8664567 23.1998425,38.7456693 C23.2181102,38.7382677 23.236378,38.7291339 23.2548031,38.72 C26.8447244,37.1647244 29.4135433,33.0533858 29.4135433,28.2110236 L29.4135433,28.1716535 C30.0722835,28.0773228 30.588189,27.5340157 30.588189,26.8488189 L30.588189,16.9226772 C32.2313386,16.0974803 33.6146457,14.9620472 34.439685,13.4096063 C36.1395276,10.2149606 36.2713386,7.12094488 34.8148031,4.69653543 C33.3620472,2.27952756 30.5259843,0.895275591 27.0292913,0.895275591 C24.5299213,0.895275591 22.2922835,1.9911811 20.4587402,3.38 C18.8229921,1.56771654 15.6622047,-0.0845669291 12.2872441,0.00330708661 C10.1070866,0.06 7.01669291,0.866929134 4.66188976,4.39732283 C3.44787402,6.21228346 3.07653543,8.13448819 3.55496063,10.1059843 C4.4615748,13.8322835 8.25181102,16.6015748 9.84645669,17.6251969 L9.84645669,17.6251969 Z M6.92519685,5.90692913 C8.29480315,3.85385827 10.1217323,2.78362205 12.3513386,2.72771654 C14.7829921,2.67102362 17.235748,3.88220472 18.4141732,5.18220472 C16.5579528,7.06125984 15.4354331,8.8792126 15.3401575,9.03826772 C14.9522835,9.67858268 15.1562205,10.5138583 15.7984252,10.9055118 C16.4415748,11.2952756 17.2785827,11.0930709 17.6702362,10.4489764 C17.7114961,10.3812598 21.8970079,3.61952756 27.0274016,3.61952756 C29.5434646,3.61952756 31.5285039,4.52251969 32.476378,6.09779528 C33.4204724,7.66771654 33.2612598,9.80929134 32.0299213,12.1294488 C29.7738583,16.3752756 20.1423622,16.5474016 16.6192126,16.2544882 C15.871811,16.1896063 15.2103937,16.7513386 15.1508661,17.5006299 C15.0867717,18.2508661 15.6429921,18.9094488 16.3932283,18.9716535 C16.544252,18.9845669 17.5714961,19.0650394 19.0755906,19.0650394 C21.3699213,19.0650394 24.7696063,18.8748031 27.8618898,17.9725984 L27.8618898,25.4862992 L12.5727559,25.4862992 L12.5727559,16.8582677 C12.5727559,16.3614173 12.3028346,15.9067717 11.8700787,15.6644094 C11.8207874,15.6406299 7.04519685,12.9426772 6.20173228,9.45527559 C5.90787402,8.2415748 6.14393701,7.07968504 6.92519685,5.90692913 L6.92519685,5.90692913 Z" id="Shape"></path>
                </g>
            </g>
        </g>
    </g>
</svg>