<?xml version="1.0" encoding="UTF-8"?>
<svg width="25px" height="25px" viewBox="0 0 25 25" version="1.1" xmlns="http://www.w3.org/2000/svg" xmlns:xlink="http://www.w3.org/1999/xlink">
    <!-- Generator: Sketch 40 (33762) - http://www.bohemiancoding.com/sketch -->
    <title>Shape</title>
    <desc>Created with Sketch.</desc>
    <defs></defs>
    <g id="Page-1" stroke="none" stroke-width="1" fill="none" fill-rule="evenodd">
        <g id="Artboard" transform="translate(-389.000000, -250.000000)" fill="#FFFFFF">
            <g id="cross" transform="translate(389.000000, 250.000000)">
                <g id="Page-1">
                    <g id="cross">
                        <path d="M14.7101852,12.5004023 L24.5426839,2.66751302 C25.1528449,2.05735201 25.1528449,1.06789115 24.5426839,0.458120763 C23.9325229,-0.152040254 22.9434527,-0.152040254 22.3332917,0.458120763 L12.5004023,10.2906195 L2.66790365,0.458120763 C2.05774263,-0.152040254 1.06828178,-0.152040254 0.458120763,0.458120763 C-0.152040254,1.06828178 -0.152040254,2.05774263 0.458120763,2.66751302 L10.2910101,12.5004023 L0.458120763,22.3332917 C-0.152040254,22.9434527 -0.152040254,23.9329135 0.458120763,24.5426839 C0.763201271,24.8477644 1.1632044,25.0005 1.56281689,25.0005 C1.96242939,25.0005 2.36282314,24.8477644 2.66790365,24.5426839 L12.5004023,14.7101852 L22.3332917,24.5426839 C22.6383722,24.8477644 23.0383753,25.0005 23.4379878,25.0005 C23.8376003,25.0005 24.237994,24.8477644 24.5426839,24.5426839 C25.1528449,23.9325229 25.1528449,22.9430621 24.5426839,22.3332917 L14.7101852,12.5004023 L14.7101852,12.5004023 L14.7101852,12.5004023 Z" id="Shape"></path>
                    </g>
                </g>
            </g>
        </g>
    </g>
</svg>