<?xml version="1.0" encoding="UTF-8"?>
<svg width="58px" height="58px" viewBox="0 0 58 58" version="1.1" xmlns="http://www.w3.org/2000/svg" xmlns:xlink="http://www.w3.org/1999/xlink">
    <!-- Generator: Sketch 40 (33762) - http://www.bohemiancoding.com/sketch -->
    <title>facebook</title>
    <desc>Created with Sketch.</desc>
    <defs></defs>
    <g id="Page-1" stroke="none" stroke-width="1" fill="none" fill-rule="evenodd">
        <g id="Artboard-2" transform="translate(-11.000000, -12.000000)">
            <g id="facebook" transform="translate(11.000000, 12.000000)">
                <g id="About">
                    <g id="Artboard">
                        <g id="Group-4">
                            <path d="M29,58 C45.0162577,58 58,45.0162577 58,29 C58,12.9837423 45.0162577,0 29,0 C12.9837423,0 0,12.9837423 0,29 C0,45.0162577 12.9837423,58 29,58 Z M26.1569467,15.270339 C27.3721415,14.113234 29.1006134,13.7224141 30.7311347,13.6737035 C32.4555979,13.6581978 34.1793803,13.6675768 35.9038435,13.6682576 C35.9106509,15.4874191 35.911256,17.3072614 35.9031628,19.1263473 C34.7887174,19.1243808 33.6735156,19.1290703 32.5590702,19.1243808 C31.8523875,19.0803596 31.1267197,19.6160256 30.9982869,20.3165817 C30.9813441,21.5338187 30.9921603,22.7517364 30.992841,23.9690491 C32.627371,23.9757808 34.261901,23.9670068 35.8963554,23.9731335 C35.7766966,25.734054 35.558255,27.486957 35.3019946,29.2330526 C33.8582228,29.2465917 32.4136189,29.2316911 30.9699228,29.2405407 C30.9570644,34.4342012 30.9766545,39.6278617 30.9597873,44.8215222 C28.8153082,44.8302961 26.6695432,44.8174377 24.5251396,44.8275732 C24.4845222,39.6332319 24.5284677,34.4362434 24.5028265,29.2412214 C23.4566063,29.2303296 22.409781,29.2487096 21.3636364,29.2324475 C21.3676452,27.4863519 21.3649978,25.740332 21.3656029,23.9948415 C22.4110668,23.9820587 23.457287,23.9975645 24.5028265,23.987429 C24.5345943,22.2899684 24.4709831,20.5905413 24.5359558,18.8945179 C24.6407896,17.5513442 25.1527054,16.1981107 26.1569467,15.270339 Z" id="Combined-Shape" fill="#FFFFFF"></path>
                            <g id="facebook" transform="translate(21.000000, 13.000000)">
                                <g id="Layer_1">
                                    <g id="_x23_020201ff"></g>
                                </g>
                            </g>
                        </g>
                    </g>
                </g>
            </g>
        </g>
    </g>
</svg>