<?xml version="1.0" encoding="UTF-8"?>
<svg width="65px" height="58px" viewBox="0 0 65 58" version="1.1" xmlns="http://www.w3.org/2000/svg" xmlns:xlink="http://www.w3.org/1999/xlink">
    <!-- Generator: Sketch 40 (33762) - http://www.bohemiancoding.com/sketch -->
    <title>Capa_1</title>
    <desc>Created with Sketch.</desc>
    <defs></defs>
    <g id="Product" stroke="none" stroke-width="1" fill="none" fill-rule="evenodd">
        <g id="Artboard" transform="translate(-968.000000, -2643.000000)" fill="#007850">
            <g id="flatware-silhouette-of-a-knife-and-a-fork-cross" transform="translate(968.000000, 2643.000000)">
                <g id="Capa_1">
                    <g id="Group">
                        <path d="M8.06541667,52.4333333 C6.99755952,53.4965476 6.99755952,55.2236905 8.05845238,56.2869048 C9.12863095,57.3524405 10.8534524,57.3524405 11.9189881,56.2869048 L28.921131,39.2847619 L25.0652381,35.428869 L8.06541667,52.4333333 L8.06541667,52.4333333 Z" id="Shape"></path>
                        <path d="M63.8864881,12.8506548 C63.322381,12.2795833 62.396131,12.2795833 61.8204167,12.8529762 L49.8488095,24.8269048 L47.7804167,22.7608333 L59.7566667,10.7845833 C60.3300595,10.2111905 60.3300595,9.28958333 59.763631,8.7185119 C59.1855952,8.14511905 58.2663095,8.14744048 57.6952381,8.72083333 L45.7166667,20.6970833 L43.6459524,18.626369 L55.6245238,6.6547619 C56.1955952,6.07904762 56.1955952,5.15511905 55.6291667,4.58404762 C55.0580952,4.01529762 54.1295238,4.01529762 53.556131,4.58869048 L41.5845238,16.5672619 L39.5138095,14.5011905 L51.4877381,2.52494048 C52.0657738,1.95154762 52.0657738,1.02529762 51.4947024,0.456547619 C50.923631,-0.119166667 49.997381,-0.119166667 49.4239881,0.456547619 L37.0345238,12.8460119 C36.9416667,12.938869 36.8882738,13.0572619 36.8209524,13.166369 C33.0555952,17.3867262 33.0277381,21.730119 35.307381,25.2702976 C35.2214881,25.3352976 35.1147024,25.3677976 35.0404167,25.4444048 L32.1920238,28.2904762 L36.0479167,32.146369 L38.8963095,29.3002976 C38.9752381,29.2236905 39.0054167,29.1215476 39.0727381,29.0356548 C42.603631,31.3083333 46.9493452,31.2804762 51.1743452,27.5174405 C51.2880952,27.4594048 51.4018452,27.3990476 51.4970238,27.3061905 L63.8818452,14.9190476 C64.4645238,14.3479762 64.4645238,13.4194048 63.8864881,12.8506548 L63.8864881,12.8506548 Z" id="Shape"></path>
                        <path d="M24.3897024,23.7636905 C24.2550595,23.6360119 24.0972024,23.5733333 23.9532738,23.4758333 C25.9404167,19.2902976 24.5104167,13.2870833 20.0463095,8.82529762 C14.7279167,3.5022619 7.1739881,2.42279762 3.18345238,6.4110119 C-0.807083333,10.403869 0.267738095,17.9577976 5.58845238,23.2808333 C10.0525595,27.7449405 16.0534524,29.1772619 20.2389881,27.190119 C20.3364881,27.3340476 20.4038095,27.4919048 20.5314881,27.6195833 L49.4402381,56.5306548 C50.5080952,57.593869 52.2282738,57.5961905 53.2984524,56.5306548 C54.3639881,55.4674405 54.3593452,53.742619 53.296131,52.6770833 L24.3897024,23.7636905 L24.3897024,23.7636905 Z" id="Shape"></path>
                    </g>
                </g>
            </g>
        </g>
    </g>
</svg>