<?xml version="1.0" encoding="UTF-8"?>
<svg width="36px" height="55px" viewBox="0 0 36 55" version="1.1" xmlns="http://www.w3.org/2000/svg" xmlns:xlink="http://www.w3.org/1999/xlink">
    <!-- Generator: Sketch 40 (33762) - http://www.bohemiancoding.com/sketch -->
    <title>Shape</title>
    <desc>Created with Sketch.</desc>
    <defs></defs>
    <g id="Page-1" stroke="none" stroke-width="1" fill="none" fill-rule="evenodd">
        <g id="hourgrlass" fill="#007850">
            <g id="old-hourglass">
                <g id="Page-1">
                    <g id="old-hourglass">
                        <path d="M21.5044472,26.5152513 C27.246005,23.9730905 31.3317588,15.6517839 31.6905025,6.0041206 L34.0281407,6.0041206 C34.7912312,6.0041206 35.4100503,5.38530151 35.4100503,4.62221106 L35.4100503,1.38190955 C35.4100503,0.618819095 34.7912312,0 34.0281407,0 L1.48417085,0 C0.721080402,0 0.102261307,0.618819095 0.102261307,1.38190955 L0.102261307,4.62221106 C0.102261307,5.38530151 0.721080402,6.0041206 1.48417085,6.0041206 L3.82180905,6.0041206 C4.18082915,15.6517839 8.26630653,23.9728141 14.0078643,26.5152513 C14.385402,26.6824623 14.6291709,27.041206 14.6291709,27.429799 C14.6291709,27.8181156 14.385402,28.1768593 14.0078643,28.3440704 C8.26630653,30.8865075 4.18055276,39.2075377 3.82180905,48.855201 L1.48417085,48.855201 C0.721080402,48.855201 0.102261307,49.4740201 0.102261307,50.2371106 L0.102261307,53.4774121 C0.102261307,54.2405025 0.721080402,54.8593216 1.48417085,54.8593216 L34.0281407,54.8593216 C34.7912312,54.8593216 35.4100503,54.2405025 35.4100503,53.4774121 L35.4100503,50.2371106 C35.4100503,49.4740201 34.7912312,48.855201 34.0281407,48.855201 L31.6905025,48.855201 C31.3314824,39.2078141 27.246005,30.8865075 21.5044472,28.3440704 C21.1269095,28.1768593 20.8831407,27.8181156 20.8831407,27.429799 C20.8831407,27.041206 21.1269095,26.6824623 21.5044472,26.5152513 L21.5044472,26.5152513 L21.5044472,26.5152513 Z M14.7527136,22.6727136 C13.8359548,22.1337688 12.7942714,21.0719095 11.8565075,19.9564322 C13.5330402,20.3613317 15.5777136,20.6974121 17.7451005,20.6974121 C19.9879397,20.6974121 22.1033668,20.3372864 23.8155528,19.9138693 C22.9894472,20.8834171 21.9582663,21.9112814 20.7540704,22.7531407 C20.2657035,23.0944724 19.2187688,23.4932915 17.8755528,23.4932915 C17.0875879,23.4932915 15.9063317,23.3509548 14.7527136,22.6727136 L14.7527136,22.6727136 L14.7527136,22.6727136 Z M7.82768844,47.8179397 C7.83017588,47.6744975 7.83376884,47.5194472 7.83874372,47.3525126 C7.85836683,46.673995 8.03801508,45.3509548 8.19693467,44.4505025 C8.20550251,44.4010302 8.24170854,44.3606784 8.29145729,44.345201 L16.9579648,41.6217337 C17.2163819,41.5407538 17.4844724,41.4995729 17.7553266,41.4995729 C18.0261809,41.4995729 18.2945477,41.5407538 18.5526884,41.6217337 L27.1921106,44.3366332 C27.2429648,44.3526633 27.2794472,44.394397 27.2871859,44.4460804 C27.3504774,44.8667337 27.4438945,45.5184422 27.5309548,46.2342714 C27.5961809,46.7712814 27.6321106,47.3323367 27.6517337,47.8182161 L7.82768844,47.8182161 L7.82768844,47.8179397 L7.82768844,47.8179397 Z" id="Shape"></path>
                    </g>
                </g>
            </g>
        </g>
    </g>
</svg>