<?xml version="1.0" encoding="UTF-8"?>
<svg width="60px" height="60px" viewBox="0 0 60 60" version="1.1" xmlns="http://www.w3.org/2000/svg" xmlns:xlink="http://www.w3.org/1999/xlink">
    <!-- Generator: Sketch 40 (33762) - http://www.bohemiancoding.com/sketch -->
    <title>instagram</title>
    <desc>Created with Sketch.</desc>
    <defs></defs>
    <g id="Page-1" stroke="none" stroke-width="1" fill="none" fill-rule="evenodd">
        <g id="Artboard" transform="translate(-13.000000, -7.000000)" fill="#FFFFFF">
            <g id="instagram" transform="translate(13.000000, 7.000000)">
                <g id="Group-2">
                    <path d="M30,60 C46.5685425,60 60,46.5685425 60,30 C60,13.4314575 46.5685425,0 30,0 C13.4314575,0 0,13.4314575 0,30 C0,46.5685425 13.4314575,60 30,60 Z M30.4598366,12.0693068 C25.717995,12.0693068 25.1234109,12.0894058 23.261203,12.1743761 C21.4027376,12.2591385 20.1335891,12.5543167 19.0229455,12.985891 C17.8748069,13.432089 16.9011139,14.0290989 15.9304703,14.9997424 C14.9598267,15.9704553 14.3628168,16.9441484 13.9166188,18.092287 C13.4849752,19.2028613 13.1898663,20.4720791 13.1050347,22.3304751 C13.0200644,24.1927523 12.9999653,24.7873365 12.9999653,29.5291781 C12.9999653,34.2709504 13.0200644,34.8655345 13.1050347,36.7278118 C13.1898663,38.5862078 13.4849752,39.8554256 13.9166188,40.9659999 C14.3628168,42.1141385 14.9598267,43.0878316 15.9304703,44.0585444 C16.9011139,45.029188 17.8748069,45.6261979 19.0229455,46.0723959 C20.1335891,46.5039702 21.4027376,46.7991484 23.261203,46.8839108 C25.1234109,46.9689504 25.717995,46.9889801 30.4598366,46.9889801 C35.2016782,46.9889801 35.7961931,46.9689504 37.6584703,46.8839108 C39.5169356,46.7991484 40.7860842,46.5039702 41.8967277,46.0723959 C43.0448663,45.6261979 44.0185594,45.029188 44.989203,44.0585444 C45.9598465,43.0878316 46.5568564,42.1141385 47.0030545,40.9659999 C47.434698,39.8554256 47.7298069,38.5862078 47.8146386,36.7278118 C47.8996089,34.8655345 47.9196386,34.2709504 47.9196386,29.5291781 C47.9196386,24.7873365 47.8996089,24.1927523 47.8146386,22.3304751 C47.7298069,20.4720791 47.434698,19.2028613 47.0030545,18.092287 C46.5568564,16.9441484 45.9598465,15.9704553 44.989203,14.9997424 C44.0185594,14.0290989 43.0448663,13.432089 41.8967277,12.985891 C40.7860842,12.5543167 39.5169356,12.2591385 37.6584703,12.1743761 C35.7961931,12.0894058 35.2016782,12.0693068 30.4598366,12.0693068 Z M30.4598366,15.2152177 C35.1218366,15.2152177 35.674005,15.2330296 37.5150743,15.3170296 C39.2173911,15.3946533 40.1418762,15.679089 40.7571832,15.9181979 C41.5720941,16.2349306 42.1537871,16.6132771 42.7647277,17.224287 C43.3756683,17.8352276 43.7540842,18.4168514 44.0707475,19.2318315 C44.3098564,19.8470692 44.5942921,20.7715543 44.6719851,22.4738712 C44.7559851,24.3149405 44.7737277,24.8671781 44.7737277,29.5291781 C44.7737277,34.1911088 44.7559851,34.7433464 44.6719851,36.5844157 C44.5942921,38.2867325 44.3098564,39.2112177 44.0707475,39.8264553 C43.7540842,40.6414355 43.3756683,41.2230593 42.7647277,41.8339999 C42.1537871,42.4450098 41.5720941,42.8233563 40.7571832,43.140089 C40.1418762,43.3791979 39.2173911,43.6636335 37.5150743,43.7412573 C35.6742822,43.8252573 35.1221139,43.8430692 30.4598366,43.8430692 C25.7975594,43.8430692 25.2453911,43.8252573 23.404599,43.7412573 C21.7022822,43.6636335 20.7777277,43.3791979 20.1624901,43.140089 C19.3475792,42.8233563 18.7658861,42.4450098 18.1549455,41.8339999 C17.5440049,41.2230593 17.1655891,40.6414355 16.8488564,39.8264553 C16.6098168,39.2112177 16.3253812,38.2867325 16.2476881,36.5844157 C16.1636881,34.7433464 16.1459455,34.1911088 16.1459455,29.5291781 C16.1459455,24.8671781 16.1636881,24.3149405 16.2476881,22.4738712 C16.3253812,20.7715543 16.6098168,19.8470692 16.8488564,19.2318315 C17.1655891,18.4168514 17.5440049,17.8352276 18.1549455,17.224287 C18.7658861,16.6132771 19.3475792,16.2349306 20.1624901,15.9181979 C20.7777277,15.679089 21.7022822,15.3946533 23.4045297,15.3170296 C25.2456683,15.2330296 25.7978366,15.2152177 30.4598366,15.2152177 Z M41.8751248,20.2090386 C41.8751248,21.3661871 40.9370554,22.3041871 39.7799762,22.3041871 C38.6228277,22.3041871 37.6847584,21.3661871 37.6847584,20.2090386 C37.6847584,19.0518901 38.6228277,18.1138901 39.7799762,18.1138901 C40.9370554,18.1138901 41.8751248,19.0518901 41.8751248,20.2090386 Z M30.4598366,35.3490891 C27.2455891,35.3490891 24.6398564,32.7434257 24.6398564,29.5291782 C24.6398564,26.3148614 27.2455891,23.709198 30.4598366,23.709198 C33.6740842,23.709198 36.2797475,26.3148614 36.2797475,29.5291782 C36.2797475,32.7434257 33.6740842,35.3490891 30.4598366,35.3490891 Z M30.4598366,20.5632871 C25.5081337,20.5632871 21.4939455,24.5774059 21.4939455,29.5291782 C21.4939455,34.4808812 25.5081337,38.495 30.4598366,38.495 C35.4115396,38.495 39.4257277,34.4808812 39.4257277,29.5291782 C39.4257277,24.5774059 35.4115396,20.5632871 30.4598366,20.5632871 Z" id="Combined-Shape"></path>
                </g>
            </g>
        </g>
    </g>
</svg>