<?xml version="1.0" encoding="UTF-8"?>
<svg width="58px" height="56px" viewBox="0 0 58 56" version="1.1" xmlns="http://www.w3.org/2000/svg" xmlns:xlink="http://www.w3.org/1999/xlink">
    <!-- Generator: Sketch 40 (33762) - http://www.bohemiancoding.com/sketch -->
    <title>mixer-kitchen-tool-side-view</title>
    <desc>Created with Sketch.</desc>
    <defs></defs>
    <g id="Page-1" stroke="none" stroke-width="1" fill="none" fill-rule="evenodd">
        <g id="mixer-kitchen-tool-side-view" fill="#007850">
            <path d="M48.4226929,48.001928 L26.5496903,48.001928 C22.3604462,48.001928 18.4277113,44.9036233 18.4277113,39.7255623 L18.4277113,17.6234017 L33.5724094,17.6234017 L33.5724094,23.0999224 L19.8930866,23.0999224 L19.8930866,38.6333296 C19.8930866,44.2080443 23.7586877,46.7942825 25.9500525,46.7942825 L35.5249239,46.7942825 L35.7213018,46.7942825 L45.2970866,46.7942825 C47.4886037,46.7942825 51.3549659,44.2078892 51.3549659,38.6333296 L51.3549659,23.0999224 L37.6774698,23.0999224 L37.6774698,17.6234017 L49.9381522,17.6234017 C51.9421207,17.6234017 51.0631391,7.46909695 49.9381522,4.63031579 C48.8149921,1.79432687 43.8326247,0.00186149584 41.8781312,0.00186149584 L14.6167612,0.00186149584 C10.370126,0.00186149584 8.06991601,2.33136842 7.05727559,5.31162327 L12.2714908,5.31162327 L12.2714908,6.80485319 L6.66482415,6.80485319 C6.58886089,7.1994903 6.52522835,7.59878116 6.48366929,7.99884765 L12.2717953,7.99884765 L12.2717953,9.49393906 L6.41288189,9.49393906 C6.41288189,9.91665374 6.43236745,10.3375069 6.46677165,10.7564986 L12.2734698,10.7564986 L12.2734698,12.2489529 L6.6552336,12.2489529 C7.10264042,14.8145596 8.12593701,16.9765319 9.34180577,17.7253186 L9.34180577,43.6114349 C9.34180577,47.3927535 -4.0447769,53.9660055 1.23139633,55.9537729 L57.605874,55.9537729 C59.4612651,55.9537729 53.6014383,48.001928 48.4226929,48.001928 L48.4226929,48.001928 Z M26.9354436,43.8458283 C26.4277533,43.5900277 25.720336,43.1500942 25.0278373,42.393241 C24.680294,42.0181496 24.3380787,41.5603767 24.0718268,41.0070471 C23.9214226,40.7386814 23.816231,40.4374294 23.7038845,40.1293518 C23.6295958,39.8158449 23.5190761,39.3867701 23.5049186,39.1238338 C23.4137323,38.4280997 23.4288031,37.8837673 23.4137323,37.2384488 C23.410231,36.6131413 23.3837428,35.9786814 23.3942467,35.3423601 C23.3960735,32.8046759 23.5667244,30.2634238 23.7868504,28.358338 C23.9992126,26.4532521 24.2945407,25.1816953 24.2945407,25.1816953 C24.2945407,25.1816953 24.5898688,26.4515457 24.8013176,28.358338 C25.0241837,30.2634238 25.1931601,32.8046759 25.1948346,35.3423601 C25.2053386,35.9803878 25.1797638,36.6129861 25.1744357,37.2384488 C25.1814383,37.8404875 25.1240472,38.5307922 25.1345512,39.0228476 C25.1240472,39.3599335 25.1797638,39.498615 25.1981837,39.7510028 C25.2555748,39.9888089 25.2778005,40.2339058 25.3609186,40.4610083 C25.4918373,40.9242105 25.6996325,41.344133 25.8969239,41.7387701 C26.3266719,42.510205 26.8043727,43.1266704 27.1633333,43.5411634 C27.5215328,43.957518 27.7574908,44.1846205 27.7574908,44.1846205 C27.7574908,44.1846205 27.4437428,44.1053518 26.9354436,43.8458283 L26.9354436,43.8458283 Z" id="Shape"></path>
        </g>
    </g>
</svg>