<?xml version="1.0" encoding="UTF-8"?>
<svg width="55px" height="56px" viewBox="0 0 55 56" version="1.1" xmlns="http://www.w3.org/2000/svg" xmlns:xlink="http://www.w3.org/1999/xlink">
    <!-- Generator: Sketch 40 (33762) - http://www.bohemiancoding.com/sketch -->
    <title>rye</title>
    <desc>Created with Sketch.</desc>
    <defs></defs>
    <g id="Page-1" stroke="none" stroke-width="1" fill="none" fill-rule="evenodd">
        <g id="rye" fill="#424242">
            <path d="M47.3256403,55.9963741 C47.9189448,55.9963741 48.3999808,55.5153381 48.3999808,54.9220336 C48.3999808,54.328729 47.9189448,53.847693 47.3256403,53.847693 L34.7107338,53.847693 L37.133506,48.1945132 C37.2538321,48.2063309 37.3748297,48.2141199 37.4966331,48.2141199 C37.6451607,48.2141199 37.7946283,48.2052566 37.9442302,48.1873957 C38.6201247,48.1068201 39.2475396,47.8484412 39.7747722,47.4420719 L44.9991559,43.6501871 C45.7979281,43.070446 46.3203261,42.2070791 46.4699281,41.2190887 C46.6069065,40.3146283 46.4038561,39.381295 45.9130168,38.6181103 L47.7544365,37.2404029 C49.336,36.0567482 49.7121535,33.8526043 48.6559424,32.217458 L50.4970935,30.8400192 C51.2947914,30.2430887 51.8127578,29.3685755 51.9555108,28.3774964 C52.0638849,27.6246523 51.9451703,26.8755683 51.6205851,26.2092086 L54.7936499,18.8045851 C55.0273189,18.259223 54.7747146,17.6276451 54.2292182,17.393976 C53.6837218,17.160307 53.0522782,17.4129113 52.8186091,17.9584077 L50.0003453,24.5352518 C49.6272806,24.3397218 49.2190312,24.2067722 48.7887578,24.1448633 C48.3246427,24.0779856 47.8618705,24.0983981 47.4185707,24.1993861 L51.6400576,14.3407002 C51.8735923,13.7952038 51.6207194,13.1637602 51.0753573,12.9302254 C50.5301295,12.6966906 49.8985516,12.9495635 49.6648825,13.4949257 L45.4419185,23.3569688 C45.2089209,22.9640288 44.903271,22.6127194 44.5324892,22.321036 C44.1909832,22.0523165 43.8134868,21.8484604 43.4146379,21.7132278 L46.2329017,15.1362494 C46.4665707,14.5908873 46.2138321,13.9593094 45.66847,13.7256403 C45.1229736,13.4919712 44.49153,13.7445755 44.2578609,14.2900719 L41.0849305,21.694964 C39.4100336,22.2282398 38.290705,23.8933333 38.5062446,25.7019856 L38.7787242,27.9849592 C36.8662638,28.3480863 35.5296499,30.1407578 35.7635875,32.102235 L36.0360671,34.3854772 C34.1236067,34.7486043 32.7871271,36.5411415 33.0210647,38.5026187 L33.7863981,44.9158945 L33.7863981,44.9157602 C33.9022926,45.8868297 34.3852086,46.7575827 35.1470504,47.37506 L32.3731031,53.8478273 L28.5395875,53.8478273 L28.5395875,37.9341583 C29.4827242,37.6667818 30.2695444,37.0566906 30.7583693,36.209976 L33.9877026,30.6165564 C34.4857938,29.7537266 34.6174005,28.7458609 34.3582158,27.7786859 C34.1217266,26.8959808 33.5856307,26.1475683 32.8381583,25.6446427 L33.9881055,23.6530839 C34.9755588,21.9423309 34.4531607,19.7682686 32.8384269,18.6811703 L33.9881055,16.6898801 C34.8986091,15.1124796 34.5255444,13.1413333 33.1964508,11.9915204 L33.1964508,3.93490647 C33.1964508,3.34160192 32.7154149,2.86056595 32.1221103,2.86056595 C31.5288058,2.86056595 31.0477698,3.34160192 31.0477698,3.93490647 L31.0477698,11.0904173 C30.6278369,11.0576499 30.200518,11.0963261 29.7805851,11.208729 C29.3262734,11.3303981 28.9078177,11.5322398 28.5395875,11.8005564 L28.5395875,1.07434053 C28.5395875,0.481035971 28.0585516,0 27.465247,0 C26.8719424,0 26.3909065,0.481035971 26.3909065,1.07434053 L26.3909065,11.8008249 C25.6673381,11.2730552 24.7736211,11.0205851 23.8825899,11.0908201 L23.8825899,3.93490647 C23.8825899,3.34160192 23.401554,2.86056595 22.8082494,2.86056595 C22.2149448,2.86056595 21.7339089,3.34160192 21.7339089,3.93490647 L21.7339089,11.9915204 C20.4049496,13.1416019 20.0320192,15.1126139 20.9425228,16.6897458 L22.0922014,18.6809017 C20.4773333,19.768 19.9549353,21.9420624 20.9425228,23.6529496 L22.0923357,25.6445084 C21.3405659,26.1526715 20.7864748,26.9306283 20.5560288,27.8158849 C20.3043645,28.7827914 20.4442974,29.7821966 20.9501775,30.6298513 L24.2541775,36.1651223 C24.5788969,36.7499664 25.0556355,37.2373141 25.6477314,37.5790887 C25.8855635,37.71647 26.1346763,37.8241727 26.3906379,37.9054197 L26.3906379,53.8478273 L22.5486619,53.8478273 L19.7741775,47.3754628 C20.5361535,46.7581199 21.0192038,45.8872326 21.1352326,44.9160288 L21.1352326,44.9160288 L21.9005659,38.5026187 C22.1343693,36.5412758 20.798024,34.7486043 18.8854293,34.3854772 L19.1579089,32.102235 C19.3918465,30.1407578 18.0555012,28.3480863 16.1429065,27.9849592 L16.4153861,25.7018513 C16.63106,23.893199 15.5115971,22.2283741 13.8368345,21.694964 L10.6637698,14.2899376 C10.4301007,13.7445755 9.79865707,13.4918369 9.25316067,13.725506 C8.70779856,13.9591751 8.45505995,14.590753 8.68872902,15.1361151 L11.5069928,21.7133621 C11.1081439,21.8485947 10.7305132,22.0524508 10.3890072,22.321036 C10.0170168,22.6137938 9.71042686,22.9665803 9.47702638,23.3612662 L5.25701679,13.4953285 C5.02361631,12.9496978 4.39244125,12.6966906 3.84681055,12.9300911 C3.30117986,13.1634916 3.04817266,13.794801 3.28157314,14.3402974 L7.49822542,24.1980432 C7.05667146,24.0982638 6.59564508,24.0781199 6.13300719,24.1448633 C5.70273381,24.2067722 5.29448441,24.3397218 4.92141966,24.5353861 L2.10315588,17.9582734 C1.86948681,17.4129113 1.23804317,17.160307 0.692546763,17.3938417 C0.147184652,17.6275108 -0.105553957,18.2590887 0.128115108,18.8044508 L3.30131415,26.2100144 C2.53275779,27.7903693 2.96638849,29.7488921 4.42453717,30.8400192 L6.26555396,32.217458 C5.20947722,33.85247 5.5856307,36.0566139 7.16719424,37.2404029 L9.00861391,38.617976 C8.51777458,39.381295 8.31472422,40.3146283 8.45183693,41.2190887 C8.60143885,42.2070791 9.12370264,43.0703118 9.92247482,43.6500528 L15.1467242,47.4418034 C15.6740911,47.848307 16.301506,48.1066859 16.9774005,48.1872614 C17.1271367,48.2051223 17.2766043,48.2139856 17.4251319,48.2139856 C17.546801,48.2139856 17.6676643,48.2061966 17.7878561,48.1945132 L20.2111655,53.847693 L7.59639329,53.847693 C7.00308873,53.847693 6.52205276,54.328729 6.52205276,54.9220336 C6.52205276,55.5153381 7.00308873,55.9963741 7.59639329,55.9963741 L47.3256403,55.9963741 L47.3256403,55.9963741 Z M27.5080863,26.8752998 L27.465247,26.9495635 L27.4224077,26.8752998 C27.1943789,26.480211 26.9009496,26.1372278 26.5576978,25.8557506 L29.3691127,20.9861679 C29.5803549,20.6203549 29.9240096,20.3579472 30.3369592,20.2474245 C30.7497746,20.1367674 31.178705,20.1920959 31.5442494,20.4033381 C32.3047482,20.8424748 32.5662158,21.8183789 32.1273477,22.5786091 L30.7256019,25.0063501 C30.4105516,25.0091703 30.0934868,25.0514724 29.7805851,25.135271 C28.8131415,25.3945899 28.0061775,26.01247 27.5080863,26.8752998 L27.5080863,26.8752998 Z M22.8035492,22.5788777 C22.3645468,21.8183789 22.6261487,20.8424748 23.3863789,20.4034724 C24.1468777,19.9646043 25.1227818,20.2260719 25.5617842,20.9863022 L26.2247866,22.1349065 L24.5553957,25.0263597 C24.4385612,25.0142734 24.3217266,25.0075588 24.2051607,25.0064844 L22.8035492,22.5788777 L22.8035492,22.5788777 Z M30.3366906,13.2842206 C30.7493717,13.1735635 31.1783022,13.2288921 31.5442494,13.4402686 C32.3046139,13.879271 32.5662158,14.8551751 32.1272134,15.6155396 L30.7256019,18.0431463 C30.4105516,18.0459664 30.0934868,18.0882686 29.7805851,18.1720671 C28.8132758,18.4312518 28.0063118,19.0491319 27.5082206,19.9119616 L27.4653813,19.9860911 L27.422542,19.9118273 C27.1911559,19.5110983 26.8959808,19.1698609 26.5575635,18.8925468 L29.3689784,14.022964 C29.5802206,13.6572854 29.9238753,13.3948777 30.3366906,13.2842206 L30.3366906,13.2842206 Z M25.5621871,14.0237698 L26.225458,15.1703597 L24.5556643,18.0624844 C24.4393669,18.0506667 24.3225324,18.0442206 24.2051607,18.0432806 L22.8034149,15.6155396 C22.3644125,14.8550408 22.6260144,13.879271 23.3863789,13.4402686 C24.1468777,13.0011319 25.1226475,13.2625995 25.5621871,14.0237698 L25.5621871,14.0237698 Z M22.6356835,28.3570839 C22.7456691,27.9344652 23.0122398,27.582753 23.3862446,27.3668106 C23.7523261,27.1555683 24.180988,27.1001055 24.5939376,27.2107626 C25.006753,27.3214197 25.3502734,27.583693 25.5616499,27.9496403 L26.2247866,29.097976 L24.4122398,32.2370647 L22.7954916,29.528518 C22.586801,29.1790887 22.5299952,28.7630504 22.6356835,28.3570839 L22.6356835,28.3570839 Z M26.1757698,35.1917698 L26.1587146,35.1632998 C26.0825707,35.036259 26.0229448,34.8980719 25.9833285,34.7504844 C25.8726715,34.3376691 25.928,33.9088729 26.1392422,33.54306 L29.3688441,27.9496403 C29.5800863,27.5838273 29.9236067,27.321554 30.3365564,27.2108969 C30.4755492,27.1736978 30.6162878,27.1551655 30.755952,27.1551655 C31.0309832,27.1551655 31.3014484,27.2267434 31.5441151,27.3668106 C31.9099281,27.5780528 32.1723357,27.9217074 32.2829928,28.3346571 C32.3936499,28.7474724 32.3381871,29.1762686 32.1270791,29.5420815 L28.8977458,35.1355012 C28.6865036,35.5013141 28.3428489,35.7637218 27.9300336,35.8743789 C27.7774772,35.9152038 27.6226379,35.933199 27.4696787,35.9291703 C27.4682014,35.9291703 27.4668585,35.9289017 27.4655156,35.9289017 C27.4641727,35.9289017 27.4628297,35.929036 27.4614868,35.9291703 C27.2035108,35.9211127 26.9507722,35.8500719 26.7226091,35.7183309 C26.4971319,35.5882014 26.3114053,35.4075779 26.1757698,35.1917698 L26.1757698,35.1917698 Z M17.0245372,31.8476163 L16.6922974,34.6313669 C15.5158945,35.1461103 14.6338609,36.2518753 14.4710983,37.6162878 L14.4608921,37.7014293 L14.3922686,37.6501295 C14.0269928,37.3768441 13.6221007,37.1771511 13.1957218,37.0537362 L13.8618129,31.4705228 C13.9658897,30.5985612 14.7602302,29.974235 15.631789,30.0777746 C16.5038849,30.181717 17.1286139,30.975789 17.0245372,31.8476163 L17.0245372,31.8476163 Z M11.7179664,24.0096307 C12.0538321,23.7453429 12.4694676,23.6270312 12.8894005,23.6773909 C13.7613621,23.7813333 14.3860911,24.575271 14.2821487,25.4470983 L13.9499089,28.2308489 C12.7737746,28.7455923 11.8916067,29.8513573 11.7285755,31.2156355 L11.7183693,31.300777 L11.6497458,31.2494772 C11.2792326,30.9721631 10.8735348,30.774753 10.453199,30.6530839 L11.1194245,25.0698705 C11.1696499,24.6504748 11.3821007,24.2739185 11.7179664,24.0096307 L11.7179664,24.0096307 Z M5.39117506,26.8904748 C5.64418225,26.5521918 6.01644125,26.3323549 6.43946283,26.2715204 C6.862753,26.2105516 7.2818801,26.3163741 7.61304556,26.5641439 L8.68040288,27.3764796 L8.28638849,30.6785995 C8.17479137,30.7135156 8.06480576,30.7536691 7.95670024,30.79906 L5.71213429,29.1197314 C5.00897842,28.5935731 4.86501679,27.593765 5.39117506,26.8904748 L5.39117506,26.8904748 Z M8.13369784,33.2908585 C8.65985612,32.5879712 9.65952998,32.443741 10.3626859,32.969765 L11.4245372,33.7642398 L11.0289113,37.0795204 C10.916777,37.1144365 10.8067914,37.1541871 10.699223,37.1991751 L8.45479137,35.5201151 C7.75176978,34.9939568 7.60780815,33.9938801 8.13369784,33.2908585 L8.13369784,33.2908585 Z M10.5763453,40.897458 C10.5109448,40.4657074 10.6174388,40.0374484 10.8763549,39.6913765 C11.1293621,39.3530935 11.5017554,39.1332566 11.924777,39.0724221 C12.3476643,39.0113189 12.76706,39.1172758 13.1054772,39.3704173 L14.1671942,40.1647578 L13.7377266,43.7640671 L11.1846906,41.9110983 C10.8551367,41.6720576 10.6391942,41.3120192 10.5763453,40.897458 L10.5763453,40.897458 Z M16.5221487,45.785036 L16.4960959,45.7661007 C16.3759041,45.6792134 16.2664556,45.5756739 16.1719137,45.4553477 C15.9076259,45.119482 15.7895827,44.7034436 15.8396739,44.284048 L16.6050072,37.8707722 C16.701295,37.0627338 17.3904844,36.467012 18.1850935,36.467012 C18.2476739,36.467012 18.31106,36.4707722 18.3747146,36.4782926 C19.2466763,36.5823693 19.8715396,37.376307 19.7674628,38.248 L19.0021295,44.6612758 C18.9520384,45.0808058 18.7395875,45.4573621 18.4037218,45.7216499 C18.2792326,45.8195492 18.1435971,45.8971703 18.0009784,45.9537074 C17.9996355,45.9542446 17.9982926,45.9546475 17.9970839,45.9551847 C17.9961439,45.9555875 17.9952038,45.9561247 17.9942638,45.9565276 C17.7538801,46.0506667 17.4937554,46.084777 17.2322878,46.0536211 C16.9736403,46.0230024 16.7317794,45.9300719 16.5221487,45.785036 L16.5221487,45.785036 Z M42.0326331,23.6775252 C42.4516259,23.6271655 42.8680671,23.7453429 43.2039329,24.009765 C43.5397986,24.2740528 43.7522494,24.6504748 43.8023405,25.0700048 L44.4684317,30.6532182 C44.0420528,30.7766331 43.6371607,30.9763261 43.2718849,31.2496115 L43.2033957,31.3009113 L43.1931894,31.2157698 C43.0302926,29.8516259 42.1481247,28.7458609 40.9721247,28.2311175 L40.6398849,25.4475012 C40.5359424,24.5754053 41.1606715,23.7813333 42.0326331,23.6775252 L42.0326331,23.6775252 Z M39.289976,30.0777746 C39.4532758,30.0583022 39.6138897,30.0643453 39.767789,30.0928153 C39.7758465,30.0945612 39.7837698,30.0969784 39.7919616,30.0984556 C40.4481151,30.2307338 40.9762878,30.7704556 41.0598177,31.4702542 L41.7260432,37.0536019 C41.29953,37.1770168 40.8947722,37.3767098 40.5294964,37.6499952 L40.4610072,37.701295 L40.450801,37.6162878 C40.2881727,36.2518753 39.4060048,35.1458417 38.2294676,34.6312326 L37.8973621,31.8477506 C37.7934197,30.975789 38.4181487,30.181717 39.289976,30.0777746 L39.289976,30.0777746 Z M36.9265612,45.956259 C36.9258897,45.9559904 36.9252182,45.9555875 36.9244125,45.9551847 C36.9238753,45.9549161 36.9232038,45.9547818 36.9226667,45.9545132 C36.7795108,45.8978417 36.6433381,45.819952 36.518446,45.7216499 C36.1825803,45.4573621 35.9701295,45.0808058 35.9200384,44.6612758 L35.9200384,44.6612758 L35.154705,38.248 C35.0507626,37.3761727 35.6754916,36.5823693 36.5471847,36.4782926 C36.6109736,36.4706379 36.6742254,36.467012 36.73694,36.467012 C37.5315492,36.467012 38.2207386,37.0628681 38.3171607,37.8709065 L39.0823597,44.2843165 C39.1324508,44.7037122 39.0144077,45.1196163 38.7501199,45.455482 C38.6555779,45.5758082 38.5459952,45.679482 38.4258034,45.766235 L38.3998849,45.785036 C38.1902542,45.9300719 37.948259,46.0230024 37.6897458,46.0538897 C37.427741,46.0850456 37.1670791,46.050801 36.9265612,45.956259 L36.9265612,45.956259 Z M44.345554,40.8973237 C44.282705,41.3120192 44.0667626,41.6720576 43.7372086,41.9110983 L41.184307,43.7640671 L40.7548393,40.1648921 L41.8166906,39.3704173 C42.1551079,39.1172758 42.574235,39.0113189 42.9972566,39.0724221 C43.4202782,39.1333909 43.7925372,39.3532278 44.0456787,39.6915108 C44.3044604,40.0373141 44.4109544,40.4655731 44.345554,40.8973237 L44.345554,40.8973237 Z M46.4672422,35.5199808 L44.2226763,37.1993094 C44.1151079,37.1543213 44.0051223,37.1145707 43.892988,37.0796547 L43.4973621,33.7643741 L44.5590791,32.9698993 C44.8973621,32.7167578 45.3163549,32.610801 45.7396451,32.6719041 C46.1626667,32.7328729 46.5349257,32.9525755 46.7880671,33.2908585 C47.3142254,33.9940144 47.1702638,34.9939568 46.4672422,35.5199808 L46.4672422,35.5199808 Z M49.8288537,28.0711751 C49.7678849,28.4941966 49.548048,28.8665899 49.2098993,29.1195971 L46.9654676,30.7987914 C46.8578993,30.7538034 46.7477794,30.7140528 46.6355108,30.6791367 L46.2405564,27.3692278 L47.3018705,26.5693813 C47.6401535,26.3163741 48.0591463,26.2106859 48.4824365,26.2713861 C48.905458,26.3323549 49.277717,26.5521918 49.5308585,26.8906091 C49.784,27.2288921 49.8898225,27.6480192 49.8288537,28.0711751 L49.8288537,28.0711751 Z" id="XMLID_808_"></path>
        </g>
    </g>
</svg>