<?xml version="1.0" encoding="UTF-8"?>
<svg width="42px" height="50px" viewBox="0 0 42 50" version="1.1" xmlns="http://www.w3.org/2000/svg" xmlns:xlink="http://www.w3.org/1999/xlink">
    <!-- Generator: Sketch 40 (33762) - http://www.bohemiancoding.com/sketch -->
    <title>Group</title>
    <desc>Created with Sketch.</desc>
    <defs></defs>
    <g id="Page-1" stroke="none" stroke-width="1" fill="none" fill-rule="evenodd">
        <g id="Group" fill="#007850">
            <g id="silhouette-of-kitchen-tool-for-pepper">
                <path d="M13.9975066,40.0143045 L13.9975066,34.7707349 L13.4591864,34.7707349 C13.4591864,34.7707349 8.41377953,30.0577428 12.5611549,15.8370079 C12.4955381,14.2267717 12.5611549,12.0304462 12.5611549,10.7748031 C14.9503937,10.3691601 14.7841207,4.10013123 8.33897638,3.60839895 C8.75682415,3.22874016 9.02217848,2.68215223 9.02217848,2.07519685 C9.02230971,0.927034121 8.09212598,0 6.94632546,0 C5.8019685,0 4.87335958,0.927034121 4.87335958,2.07362205 C4.87335958,2.68884514 5.14330709,3.23858268 5.5664042,3.61745407 C-0.779002625,4.1656168 -0.933727034,10.3721785 1.44422572,10.7730971 C1.44422572,12.0287402 1.50971129,14.2251969 1.44422572,15.8353018 C5.59304462,30.0576115 0.546850394,34.7706037 0.546850394,34.7706037 L0.00787401575,34.7706037 L0.00787401575,40.0141732 L1.01351706,40.0141732 L1.01351706,41.3787402 L0.00787401575,41.3787402 L0.00787401575,47.2338583 L1.12099738,47.2338583 L1.12099738,49.9632546 L6.95931759,49.9632546 L7.04776903,49.9632546 L12.8860892,49.9632546 L12.8860892,47.2338583 L13.9976378,47.2338583 L13.9976378,41.3787402 L12.9927822,41.3787402 L12.9927822,40.0141732 L13.9975066,40.0141732 L13.9975066,40.0143045 Z" id="Shape"></path>
            </g>
            <g id="kitchen-utensil-for-salt" transform="translate(16.666667, 14.304462)">
                <g id="Capa_1">
                    <path d="M21.734252,19.9559055 C17.9452756,15.9998688 21.3652231,3.7476378 21.3652231,3.7476378 L21.3347769,3.7476378 C21.3484252,3.66981627 21.3652231,3.59278215 21.3667979,3.51509186 C21.3774278,1.67926509 17.4375328,0.164435696 12.5673228,0.131627297 C7.69580052,0.0988188976 3.73595801,1.56338583 3.72230971,3.40065617 C3.72073491,3.51811024 3.74068241,3.6339895 3.77270341,3.7476378 L3.76653543,3.7476378 C3.76653543,3.7476378 7.13018373,15.9464567 3.39750656,19.9559055 C0.48832021,23.0846457 -1.2148294,30.735958 1.24304462,35.6867454 C4.76824147,35.6867454 9.46299213,35.6501312 12.5644357,35.6349081 C15.6673228,35.65 20.3636483,35.6867454 23.8872703,35.6867454 C26.3451444,30.7375328 25.4150919,23.7984252 21.734252,19.9559055 L21.734252,19.9559055 Z M8.61062992,15.2954068 C8.55879265,15.9778215 8.52519685,16.7019685 8.38648294,17.4392388 C8.2843832,18.1811024 8.13648294,18.9464567 7.93674541,19.7181102 C7.70800525,20.4926509 7.49606299,21.2673228 6.99291339,22.1211286 C6.49593176,22.8026247 5.95761155,23.3471129 5.55209974,23.9523622 C5.1160105,24.5317585 4.77139108,25.1431759 4.46036745,25.75 C4.22401575,26.3888451 3.90695538,26.9834646 3.79553806,27.616273 C3.6308399,28.2324147 3.47073491,28.8224409 3.44186352,29.3942257 C3.3976378,29.9585302 3.27112861,30.4813648 3.267979,30.9494751 L3.267979,32.1723097 C3.26194226,32.8553806 3.23753281,33.2565617 3.23753281,33.2565617 C3.23753281,33.2565617 3.12467192,32.8828084 2.96456693,32.2074803 C2.88832021,31.8674541 2.79527559,31.455643 2.68713911,30.9799213 C2.57887139,30.5026247 2.58188976,29.9492126 2.54527559,29.3422572 C2.54068241,29.0419948 2.49501312,28.7232283 2.52388451,28.393832 C2.56509186,28.0660105 2.60931759,27.7245407 2.65354331,27.3783465 C2.69934383,26.666273 2.95393701,25.9541995 3.19632546,25.2102362 C3.50734908,24.4997375 3.83215223,23.7388451 4.31850394,23.0862205 C4.75761155,22.406168 5.30656168,21.8085302 5.71824147,21.2229659 C6.0156168,20.7305774 6.27480315,20.0047244 6.48818898,19.307874 C6.67729659,18.5905512 6.90288714,17.892126 7.03858268,17.1846457 C7.20629921,16.4901575 7.3343832,15.8062992 7.45643045,15.1566929 C7.59527559,14.5086614 7.65472441,13.8904199 7.75380577,13.3170604 C7.85446194,12.7414698 7.88031496,12.2307087 7.94133858,11.7610236 C8.00695538,11.2952756 8.0328084,10.8782152 8.01902887,10.5335958 C8.02677165,9.84514436 8.05262467,9.4480315 8.05262467,9.4480315 C8.05262467,9.4480315 8.16246719,9.82769029 8.31942257,10.4993438 C8.40944882,10.8317585 8.47506562,11.2426509 8.5191601,11.7291339 C8.56942257,12.2116798 8.66548556,12.775853 8.64566929,13.3674541 C8.64422572,13.9604987 8.68385827,14.6161417 8.61062992,15.2954068 L8.61062992,15.2954068 Z M9.66272966,4.57559055 C8.80879265,4.57559055 8.11509186,4.20511811 8.11509186,3.7492126 C8.11509186,3.29330709 8.80721785,2.92506562 9.66272966,2.92506562 C10.5181102,2.92506562 11.2103675,3.29330709 11.2103675,3.7492126 C11.2103675,4.20511811 10.5181102,4.57559055 9.66272966,4.57559055 L9.66272966,4.57559055 Z M12.546063,2.70472441 C11.6922572,2.70472441 10.9984252,2.33648294 10.9984252,1.88057743 C10.9984252,1.42309711 11.6922572,1.05419948 12.546063,1.05419948 C13.4,1.05419948 14.092126,1.42322835 14.092126,1.88057743 C14.092126,2.33648294 13.4,2.70472441 12.546063,2.70472441 L12.546063,2.70472441 Z M16.2665354,4.57559055 C15.4127297,4.57559055 14.7188976,4.20511811 14.7188976,3.7492126 C14.7188976,3.29330709 15.4127297,2.92506562 16.2665354,2.92506562 C17.1203412,2.92506562 17.8141732,3.29330709 17.8141732,3.7492126 C17.8141732,4.20511811 17.1217848,4.57559055 16.2665354,4.57559055 L16.2665354,4.57559055 Z" id="Shape"></path>
                </g>
            </g>
        </g>
    </g>
</svg>