<?xml version="1.0" encoding="UTF-8"?>
<svg width="62px" height="56px" viewBox="0 0 62 56" version="1.1" xmlns="http://www.w3.org/2000/svg" xmlns:xlink="http://www.w3.org/1999/xlink">
    <!-- Generator: Sketch 40 (33762) - http://www.bohemiancoding.com/sketch -->
    <title>Shape</title>
    <desc>Created with Sketch.</desc>
    <defs></defs>
    <g id="Page-1" stroke="none" stroke-width="1" fill="none" fill-rule="evenodd">
        <g id="cutlery-cross-couple-of-fork-and-spoon" fill="#007850">
            <path d="M42.0111364,23.6315227 C45.4140909,25.4550227 51.9686364,24.8967727 56.9518409,19.9124545 C61.8944773,14.9707727 63.7633182,7.74438636 59.0903409,2.91709091 L59.094,2.91518182 C59.0718864,2.89481818 58.9923409,2.81543182 58.9719773,2.79411364 C58.9719773,2.79411364 58.9719773,2.79602273 58.9683182,2.79602273 C54.1440455,-1.87488636 46.9184545,-0.00715909091 41.9740682,4.93468182 C36.9907045,9.919 36.4324545,16.4735455 38.255,19.8763409 C37.7855227,22.6628182 33.9628864,25.6860227 30.5341591,27.6480909 C27.8899091,26.0169318 24.5553636,23.1342045 24.2050455,17.3385227 C24.4583182,15.0234318 23.6957955,12.6176591 21.9241591,10.8458636 C21.7615682,10.6832727 21.2938409,10.2876136 21.2938409,10.2876136 L8.37709091,0.227659091 L7.20045455,1.40334091 L21.2162045,14.5520455 L19.6959318,16.0723182 L6.11736364,2.49279545 L4.87056818,3.73863636 L18.4472273,17.3189545 L17.1635227,18.6026591 L3.58686364,5.02615909 L2.45095455,6.15188636 L15.9463182,19.6482045 L14.4001136,21.1999773 L1.28736364,7.31818182 L0,8.60936364 L10.7189091,22.1157045 C10.7189091,22.1157045 10.9740909,22.37725 11.0821136,22.4733409 C12.6421591,23.8365909 14.6005682,24.4797955 16.5386136,24.4253864 C16.5524545,24.4253864 16.5728182,24.4290455 16.5801364,24.4309545 C21.6836136,24.4818636 24.8371136,27.5844545 26.8205,30.261 C21.9675909,35.1166136 6.90661364,50.1793409 6.90661364,50.1793409 L6.91027273,50.183 C6.89547727,50.1941364 6.87606818,50.2070227 6.86127273,50.2218182 C5.63484091,51.4472955 5.63484091,53.43625 6.86127273,54.6655455 C6.92411364,54.7264773 7.16068182,54.9612955 7.22081818,55.0241364 C8.44725,56.2515227 10.4390682,56.2515227 11.6635909,55.0260455 C11.6783864,55.01125 11.6912727,54.9927955 11.7033636,54.97625 L11.7070227,54.9816591 C11.7070227,54.9816591 25.6931818,40.9947045 31.0555,35.6342955 C36.1589773,40.7358636 50.3050227,54.87825 50.3050227,54.87825 L50.3086818,54.8745909 C50.3196591,54.8876364 50.3252273,54.9059318 50.3438409,54.9245455 C51.5489545,56.12775 53.5157955,56.12775 54.7226591,54.9208864 C55.9296818,53.7119545 55.9333409,51.75275 54.7244091,50.5419091 C54.7061136,50.5253636 54.6876591,50.5197955 54.6728636,50.50325 L54.6763636,50.4995909 C54.6763636,50.4995909 39.0517273,34.8767045 34.7171364,30.5384545 C36.6745909,27.3477273 39.4435682,24.0639318 42.0111364,23.6315227 L42.0111364,23.6315227 Z M40.3511818,14.2987727 C40.425,13.46975 40.5914091,12.516 40.8667955,11.5067273 C41.0128409,11.0049545 41.1846591,10.4882273 41.3937045,9.96609091 C41.6247045,9.43568182 41.867,8.94202273 42.2217727,8.42545455 C42.9001364,7.43384091 43.7262955,6.66288636 44.5489545,6.01602273 C45.3622273,5.36072727 46.1885455,4.85147727 46.9222727,4.46520455 C47.6505909,4.07145455 48.3030227,3.81643182 48.7688409,3.67038636 C49.2419773,3.51511364 49.5173636,3.49475 49.5173636,3.49475 C49.5173636,3.49475 49.2900227,3.66672727 48.9500455,3.98459091 C48.60625,4.30436364 48.1164091,4.76286364 47.5268182,5.31172727 C46.3955227,6.41534091 44.7837727,7.84779545 43.6413409,9.40593182 C43.3659545,9.76181818 43.1201591,10.2312955 42.9057045,10.661 C42.6727955,11.1000909 42.4656591,11.5538182 42.2772955,12.0029318 C41.8852955,12.89575 41.5618636,13.7607273 41.2828182,14.5067045 C41.0110909,15.2544318 40.7985455,15.8865 40.6728636,16.3357727 C40.5360455,16.7858409 40.5545,17.0529545 40.5767727,17.0529545 C40.5657955,17.0696591 40.3974773,16.8108182 40.3476818,16.3144545 C40.2864318,15.8236591 40.2735455,15.1258864 40.3511818,14.2987727 L40.3511818,14.2987727 Z" id="Shape"></path>
        </g>
    </g>
</svg>