<?xml version="1.0" encoding="UTF-8"?>
<svg width="77px" height="55px" viewBox="0 0 77 55" version="1.1" xmlns="http://www.w3.org/2000/svg" xmlns:xlink="http://www.w3.org/1999/xlink">
    <!-- Generator: Sketch 40 (33762) - http://www.bohemiancoding.com/sketch -->
    <title>plate-with-fork-and-knife-eating-set-tools-from-top-view</title>
    <desc>Created with Sketch.</desc>
    <defs></defs>
    <g id="Page-1" stroke="none" stroke-width="1" fill="none" fill-rule="evenodd">
        <g id="plate-with-fork-and-knife-eating-set-tools-from-top-view" fill="#007850">
            <g id="Group">
                <path d="M39.1074,0.07 C23.9716,0.07 11.7046,12.3394 11.7046,27.4726 C11.7046,42.6058 23.9716,54.8752 39.1074,54.8752 C54.2382,54.8752 66.5102,42.6082 66.5102,27.4726 C66.5078,12.3392 54.2382,0.07 39.1074,0.07 L39.1074,0.07 Z M38.8052,45.0294 C29.3034,45.0294 21.6038,37.3308 21.6038,27.8292 C21.6038,18.3274 29.3034,10.6278 38.8052,10.6278 C48.3034,10.6278 56.0066,18.3274 56.0066,27.8292 C56.0066,37.3308 48.3034,45.0294 38.8052,45.0294 L38.8052,45.0294 Z" id="Shape"></path>
                <path d="M8.7826,4.938 L7.6336,4.938 L7.9764,16.9784 L6.596,16.9784 L6.596,4.938 L5.5852,4.938 L5.5852,17.0528 L4.4432,17.0528 L4.4432,4.938 L3.3266,4.9404 L3.3266,17.0552 L1.9706,17.0552 L2.3586,4.938 L1.306,4.938 L0.0338,15.1868 C0.0338,15.1868 0.0002,15.5726 0.0002,15.7202 C0.0002,17.298 0.7356,18.711 1.88,19.6288 C5.6538,23.8906 3.0768,28.2406 3.0792,29.2746 C3.0814,30.4156 3.0814,48.018 3.0814,48.018 C3.0838,48.0318 3.0768,48.041 3.0792,48.0574 C3.0814,49.1356 3.9528,50.007 5.03,50.007 C6.1082,50.007 6.9842,49.1308 6.9842,48.0574 C6.9818,48.041 6.9796,48.0318 6.9772,48.018 L6.9818,48.018 C6.9818,48.018 6.9818,30.6364 6.9842,29.314 C6.9842,28.1104 4.8068,23.1132 8.4446,19.394 C8.447,19.3894 8.455,19.3778 8.462,19.372 C9.3496,18.5298 9.9364,17.369 10.0224,16.0654 C10.0294,15.9748 10.027,15.7412 10.027,15.7412 L8.7826,4.938 L8.7826,4.938 Z" id="Shape"></path>
                <path d="M76.1418,34.0012 C76.144,32.8392 76.1068,4.9404 76.1068,4.9404 L75.47,4.938 C75.47,4.938 70.2788,7.8672 70.2788,29.6046 C74.2664,30.699 72.5886,35.0584 72.2866,35.6136 C72.2866,36.7198 72.3726,48.0874 72.3726,48.0874 L72.3864,48.0804 C72.3818,48.0968 72.3772,48.1062 72.3772,48.12 C72.3726,49.1634 73.2208,50.0116 74.2594,50.0022 C75.298,50.0068 76.1462,49.1586 76.1416,48.12 C76.146,48.1062 76.146,48.0968 76.1416,48.0874 L76.1438,48.078 C76.144,48.0782 76.144,35.277 76.1418,34.0012 L76.1418,34.0012 Z" id="Shape"></path>
            </g>
        </g>
    </g>
</svg>